<?xml version="1.0" encoding="utf-8"?>
<!-- Generator: Adobe Illustrator 26.2.1, SVG Export Plug-In . SVG Version: 6.00 Build 0)  -->
<svg version="1.1" id="Calque_1" xmlns="http://www.w3.org/2000/svg" xmlns:xlink="http://www.w3.org/1999/xlink" x="0px" y="0px"
	 viewBox="0 0 300 300" style="enable-background:new 0 0 300 300;" xml:space="preserve">
<style type="text/css">
	.st0{display:none;}
	.st1{fill:#1D1D1B;}
</style>
<rect y="0" class="st0" width="300" height="300"/>
<g id="dff727ea-c914-4c1d-9325-86d683f65698" transform="matrix(1.8084622163430943,0,0,1.8084622163430943,110.4220895861043,123.09992096770425)">
	<path d="M1.5,14.6L1.5,14.6L1.5,14.6c-0.1-0.2-0.1-0.5-0.1-0.9l0,0l0,0c0-0.4,0.1-1.6,0.4-3.6l0,0l0,0c0.3-2,0.4-3.5,0.4-4.7l0,0
		l0,0c0-0.3,0-0.7-0.1-1.2l0,0l0,0c0.7,0,1.2,0.2,1.3,0.5l0,0l0,0C3.6,4.9,3.7,5,3.7,5.2l0,0l0,0c0,0.2,0,0.4,0,0.7l0,0l0,0
		c0,0.3-0.2,1.6-0.5,3.7l0,0l0,0c-0.3,2.2-0.5,3.7-0.5,4.6l0,0l0,0c0,0,0.1,0,0.2,0l0,0l0,0c2,0,3.5-0.1,4.5-0.4l0,0l0,0
		c-0.1,0.5-0.2,1-0.5,1.3l0,0l0,0c-0.3,0.3-0.7,0.4-1.1,0.4l0,0l0,0c-0.1,0-0.5,0-1.2-0.1l0,0l0,0c-0.7-0.1-1.3-0.1-2-0.1l0,0l0,0
		c-0.6,0-1.3,0.1-1.9,0.2l0,0l0,0C0.9,15.1,1.2,14.8,1.5,14.6z M10.8,10L10.8,10L10.8,10c-0.3,0.5-0.5,0.9-0.6,1.4l0,0l0,0
		c-0.1,0.5-0.2,1-0.2,1.4l0,0l0,0c0,0.4,0.1,0.8,0.3,1.1l0,0l0,0c0.2,0.3,0.5,0.5,0.9,0.5l0,0l0,0c0.5,0,1-0.3,1.5-0.9l0,0l0,0
		c0.5-0.6,0.8-1.3,1.1-2.1l0,0l0,0c0.2-0.8,0.4-1.6,0.4-2.3l0,0l0,0c0-0.7,0-1.3-0.1-1.7l0,0l0,0c0.2,0,0.4,0,0.4,0l0,0l0,0
		c0.8,0,1.2,0.4,1.2,1.2l0,0l0,0c0,0.2-0.1,0.9-0.3,2.2l0,0l0,0c-0.2,1.3-0.3,2.3-0.3,3l0,0l0,0c0,0.8,0.1,1.4,0.4,2l0,0l0,0
		c-0.6-0.1-1-0.4-1.3-0.8l0,0l0,0c-0.3-0.4-0.4-1-0.4-1.7l0,0l0,0c0-0.1,0-0.4,0.1-0.8l0,0l0,0c-0.3,0.9-0.7,1.6-1.3,2.1l0,0l0,0
		c-0.6,0.5-1.3,0.8-1.9,0.8l0,0l0,0c-0.6,0-1.1-0.2-1.5-0.7l0,0l0,0c-0.4-0.5-0.6-1.1-0.6-1.9l0,0l0,0c0-0.8,0.2-1.6,0.5-2.4l0,0
		l0,0c0.3-0.8,0.8-1.5,1.4-2l0,0l0,0c0.6-0.6,1.3-0.9,2.1-0.9l0,0l0,0c0.3,0,0.7,0.1,1.1,0.2l0,0l0,0c-0.6,0.1-1.1,0.4-1.5,0.8l0,0
		l0,0C11.4,9.1,11,9.5,10.8,10z M24.8,5.7L24.8,5.7l0,0.2l0,0c0,0.4-0.1,1.5-0.4,3.5l0,0l0,0c-0.3,2-0.4,3.6-0.4,4.9l0,0l0,0
		c0,0.6,0,1,0.1,1.4l0,0l0,0c-0.2,0-0.4,0-0.4,0l0,0l0,0c-0.4,0-0.7-0.1-0.9-0.3l0,0l0,0c-0.2-0.2-0.3-0.5-0.3-0.9l0,0l0,0
		c0-0.4,0.2-1.8,0.5-4l0,0l0,0c0.3-2.2,0.5-3.8,0.5-4.7l0,0l0,0c0-0.9-0.1-1.6-0.2-1.9l0,0l0,0c0.3,0,0.6,0.2,0.8,0.3l0,0l0,0
		c0.3,0.2,0.5,0.4,0.6,0.8l0,0l0,0c0.7-0.4,1.5-0.6,2.4-0.6l0,0l0,0c0.9,0,1.6,0.3,2.1,0.8l0,0l0,0c0.5,0.5,0.8,1.2,0.8,2l0,0l0,0
		c0,1-0.4,1.9-1.1,2.7l0,0l0,0c-0.7,0.8-1.7,1.2-2.9,1.2l0,0l0,0c-0.3,0-0.5,0-0.8,0l0,0l0-0.5l0,0c0.6,0,1.2-0.1,1.6-0.3l0,0l0,0
		c0.5-0.2,0.8-0.4,1.1-0.7l0,0l0,0c0.5-0.6,0.7-1.3,0.7-2.1l0,0l0,0c0-0.6-0.2-1.1-0.6-1.4l0,0l0,0c-0.4-0.4-0.9-0.6-1.6-0.6l0,0
		l0,0C25.9,5.4,25.4,5.5,24.8,5.7z M33,10L33,10L33,10c-0.3,0.5-0.5,0.9-0.6,1.4l0,0l0,0c-0.1,0.5-0.2,1-0.2,1.4l0,0l0,0
		c0,0.4,0.1,0.8,0.3,1.1l0,0l0,0c0.2,0.3,0.5,0.5,0.9,0.5l0,0l0,0c0.5,0,1-0.3,1.5-0.9l0,0l0,0c0.5-0.6,0.8-1.3,1-2.1l0,0l0,0
		c0.3-0.8,0.4-1.6,0.4-2.3l0,0l0,0c0-0.7,0-1.3-0.1-1.7l0,0l0,0c0.2,0,0.4,0,0.4,0l0,0l0,0c0.8,0,1.2,0.4,1.2,1.2l0,0l0,0
		c0,0.2-0.1,0.9-0.3,2.2l0,0l0,0c-0.2,1.3-0.3,2.3-0.3,3l0,0l0,0c0,0.8,0.1,1.4,0.4,2l0,0l0,0c-0.6-0.1-1-0.4-1.3-0.8l0,0l0,0
		c-0.3-0.4-0.4-1-0.4-1.7l0,0l0,0c0-0.1,0-0.4,0.1-0.8l0,0l0,0c-0.3,0.9-0.7,1.6-1.3,2.1l0,0l0,0c-0.6,0.5-1.3,0.8-1.9,0.8l0,0l0,0
		c-0.6,0-1.1-0.2-1.5-0.7l0,0l0,0c-0.4-0.5-0.6-1.1-0.6-1.9l0,0l0,0c0-0.8,0.2-1.6,0.5-2.4l0,0l0,0c0.3-0.8,0.8-1.5,1.4-2l0,0l0,0
		c0.6-0.6,1.3-0.9,2-0.9l0,0l0,0c0.3,0,0.7,0.1,1.1,0.2l0,0l0,0c-0.6,0.1-1.1,0.4-1.5,0.8l0,0l0,0C33.6,9.1,33.2,9.5,33,10z
		 M46.4,9.3L46.4,9.3L46.4,9.3c0,0.4-0.1,1.2-0.3,2.3l0,0l0,0c-0.2,1.1-0.3,1.9-0.3,2.4l0,0l0,0c0,0.5,0.1,0.9,0.2,1.1l0,0l0,0
		c0.1,0.2,0.3,0.4,0.6,0.6l0,0l0,0c-0.1,0-0.3,0-0.5,0l0,0l0,0c-0.6,0-1.1-0.1-1.3-0.4l0,0l0,0c-0.3-0.2-0.4-0.7-0.4-1.3l0,0l0,0
		c0-0.3,0.1-1,0.3-2.1l0,0l0,0c0.2-1.1,0.3-1.8,0.3-2.3l0,0l0,0c0-0.6-0.2-0.9-0.6-0.9l0,0l0,0c-0.6,0-1.2,0.5-1.9,1.6l0,0l0,0
		c-0.6,1.1-1,2.3-1,3.8l0,0l0,0c0,0.6,0,1,0.1,1.4l0,0l0,0c-0.2,0-0.4,0-0.4,0l0,0l0,0c-0.8,0-1.2-0.4-1.2-1.2l0,0l0,0
		c0-0.2,0.1-0.9,0.3-2.1l0,0l0,0c0.2-1.3,0.3-2.3,0.3-3l0,0l0,0c0-0.7-0.1-1.4-0.2-2l0,0l0,0c0.6,0.2,0.9,0.5,1.2,0.9l0,0l0,0
		c0.2,0.4,0.3,0.9,0.3,1.4l0,0l0,0c0,0.5-0.1,1.1-0.2,1.8l0,0l0,0c0.3-1.1,0.8-1.9,1.5-2.7l0,0l0,0c0.7-0.7,1.3-1.1,1.8-1.1l0,0l0,0
		C45.9,7.4,46.4,8,46.4,9.3z M53.1,7.8L53.1,7.8L53.1,7.8c0,0.4-0.1,0.7-0.2,0.8l0,0l0,0c-0.2,0.1-0.4,0.2-0.7,0.2l0,0h-1l0,0
		c0,0.2-0.1,0.8-0.3,1.7l0,0l0,0c-0.3,1.7-0.5,3-0.5,3.9l0,0l0,0c0,0.9,0.1,1.5,0.2,1.8l0,0l0,0c-0.5-0.2-0.9-0.5-1.1-0.9l0,0l0,0
		c-0.2-0.4-0.3-0.9-0.3-1.4l0,0l0,0c0-0.6,0-1.1,0.1-1.6l0,0l0,0c0.1-0.5,0.2-1.1,0.3-1.8l0,0l0,0c0.1-0.7,0.2-1.2,0.3-1.6l0,0l0,0
		c-0.5,0.1-1.1,0.2-1.6,0.5l0,0l0,0c0-0.2,0-0.3,0-0.4l0,0l0,0c0-0.4,0.1-0.7,0.4-0.9l0,0l0,0C49,7.8,49.4,7.8,50,7.8l0,0l0,0
		c0.1-0.7,0.1-1.2,0.1-1.6l0,0l0,0c0-0.3,0-0.6,0-0.8l0,0l0,0c0-0.2,0-0.4,0-0.5l0,0l0,0c0.4,0.1,0.8,0.3,1,0.6l0,0l0,0
		c0.2,0.3,0.4,0.7,0.4,1.3l0,0l0,0c0,0.3,0,0.6-0.1,1l0,0l0,0c0.8,0,1.4-0.1,1.7-0.4l0,0l0,0C53.1,7.5,53.1,7.6,53.1,7.8z
		 M55.7,11.1L55.7,11.1c0.3-1.1,0.8-1.9,1.4-2.7l0,0l0,0c0.6-0.7,1.2-1.1,1.8-1.1l0,0l0,0c0.6,0,1,0.2,1.2,0.5l0,0l0,0
		c0.2,0.3,0.4,0.8,0.4,1.4l0,0l0,0c0,0.6-0.1,1.4-0.3,2.4l0,0l0,0c-0.2,1.1-0.3,1.8-0.3,2.3l0,0l0,0c0,0.5,0.1,0.8,0.2,1.1l0,0l0,0
		c0.1,0.2,0.3,0.4,0.6,0.6l0,0l0,0c-0.1,0-0.3,0-0.5,0l0,0l0,0c-0.6,0-1-0.1-1.3-0.4l0,0l0,0c-0.3-0.2-0.4-0.7-0.4-1.3l0,0l0,0
		c0-0.3,0.1-1,0.3-2.1l0,0l0,0c0.2-1.1,0.3-1.8,0.3-2.3l0,0l0,0c0-0.6-0.2-0.9-0.7-0.9l0,0l0,0c-0.3,0-0.5,0.1-0.8,0.4l0,0l0,0
		c-0.3,0.3-0.6,0.6-0.9,1.1l0,0l0,0c-0.3,0.5-0.5,1-0.7,1.7l0,0l0,0c-0.2,0.7-0.3,1.4-0.3,2.1l0,0l0,0c0,0.7,0,1.2,0.1,1.5l0,0l0,0
		c-0.2,0-0.4,0-0.4,0l0,0l0,0c-0.4,0-0.8-0.1-1-0.3l0,0l0,0C54.1,15,54,14.7,54,14.3l0,0l0,0c0-0.4,0.1-1.2,0.2-2.3l0,0l0,0
		C54.8,8.5,55,5.9,55,4.1l0,0l0,0c0-0.8-0.1-1.4-0.2-1.6l0,0l0,0C55.4,2.7,55.8,3,56,3.3l0,0l0,0c0.2,0.4,0.3,0.9,0.3,1.6l0,0l0,0
		c0,0.5-0.1,1.4-0.3,2.9l0,0l0,0C55.9,9.3,55.8,10.4,55.7,11.1L55.7,11.1z M66.3,8.1L66.3,8.1L66.3,8.1c-0.6,0-1,0.3-1.4,1l0,0l0,0
		c-0.4,0.6-0.7,1.4-0.8,2.3l0,0h0.4l0,0c0.5,0,0.9-0.1,1.3-0.2l0,0l0,0c0.4-0.1,0.6-0.3,0.8-0.5l0,0l0,0c0.4-0.4,0.6-0.9,0.6-1.5
		l0,0l0,0c0-0.3-0.1-0.6-0.2-0.7l0,0l0,0C66.8,8.2,66.6,8.1,66.3,8.1z M68.3,13.8L68.3,13.8c-0.4,0.7-0.9,1.2-1.4,1.5l0,0l0,0
		c-0.5,0.3-1.1,0.4-1.8,0.4l0,0l0,0c-0.7,0-1.3-0.3-1.8-0.9l0,0l0,0c-0.5-0.6-0.8-1.4-0.8-2.5l0,0l0,0c0-1.2,0.3-2.3,1-3.3l0,0l0,0
		c0.3-0.5,0.8-0.8,1.3-1.1l0,0l0,0c0.5-0.3,1.1-0.4,1.7-0.4l0,0l0,0c1.4,0,2.1,0.7,2.1,2l0,0l0,0c0,0.8-0.3,1.5-0.9,1.9l0,0l0,0
		c-0.6,0.5-1.4,0.7-2.2,0.7l0,0l0,0c-0.6,0-1.1,0-1.5-0.1l0,0l0,0c0,0.1,0,0.2,0,0.4l0,0l0,0c0,1.7,0.5,2.5,1.5,2.5l0,0l0,0
		c0.9,0,1.7-0.5,2.2-1.4l0,0l0,0C68.1,13.4,68.3,13.5,68.3,13.8L68.3,13.8z M68,6.3L68,6.3L68,6.3c0,0.1-0.1,0.2-0.2,0.3l0,0l0,0
		c-0.1,0.1-0.2,0.1-0.3,0.2l0,0l0,0c-0.3-0.4-0.8-0.8-1.3-1.2l0,0l0,0c-0.5-0.4-1.1-0.7-1.6-0.9l0,0l0,0c0-0.5,0.2-0.9,0.7-1.2l0,0
		l0,0c0.5,0.2,1,0.6,1.5,1.2l0,0l0,0C67.4,5.2,67.7,5.8,68,6.3z M72.1,10.9L72.1,10.9c0.3-1.2,0.7-2.1,1.2-2.7l0,0l0,0
		c0.5-0.6,0.9-0.9,1.3-0.9l0,0l0,0c0.4,0,0.7,0.2,0.9,0.5l0,0l0,0c0.2,0.3,0.3,0.7,0.3,1.2l0,0l0,0c0,0.5-0.1,0.9-0.4,1.2l0,0l0,0
		c-0.2,0.3-0.6,0.5-1.1,0.5l0,0l0,0c-0.1,0-0.3,0-0.3,0l0,0l0,0c0.3-0.5,0.5-0.9,0.5-1.4l0,0l0,0c0-0.3-0.1-0.5-0.4-0.5l0,0l0,0
		c-0.2,0-0.4,0.1-0.7,0.4l0,0l0,0c-0.2,0.3-0.5,0.6-0.7,1.1l0,0l0,0c-0.2,0.5-0.4,1-0.6,1.8l0,0l0,0C72,12.6,72,13.4,72,14.2l0,0
		l0,0c0,0.1,0,0.5,0.1,1.2l0,0l0,0c-0.2,0-0.4,0-0.4,0l0,0l0,0c-0.8,0-1.2-0.4-1.2-1.2l0,0l0,0c0-0.2,0.1-0.9,0.3-2.1l0,0l0,0
		c0.2-1.3,0.3-2.3,0.3-3l0,0l0,0c0-0.7-0.1-1.4-0.2-2l0,0l0,0c0.6,0.2,0.9,0.5,1.2,0.9l0,0l0,0c0.2,0.4,0.3,0.9,0.3,1.4l0,0l0,0
		C72.2,9.9,72.2,10.4,72.1,10.9L72.1,10.9z M80.4,8.1L80.4,8.1L80.4,8.1c-0.6,0-1,0.3-1.4,1l0,0l0,0c-0.4,0.6-0.6,1.4-0.8,2.3l0,0
		h0.4l0,0c0.5,0,0.9-0.1,1.3-0.2l0,0l0,0c0.4-0.1,0.6-0.3,0.8-0.5l0,0l0,0c0.4-0.4,0.6-0.9,0.6-1.5l0,0l0,0c0-0.3-0.1-0.6-0.2-0.7
		l0,0l0,0C80.9,8.2,80.6,8.1,80.4,8.1z M82.3,13.8L82.3,13.8c-0.4,0.7-0.9,1.2-1.4,1.5l0,0l0,0c-0.5,0.3-1.1,0.4-1.8,0.4l0,0l0,0
		c-0.7,0-1.3-0.3-1.8-0.9l0,0l0,0c-0.5-0.6-0.8-1.4-0.8-2.5l0,0l0,0c0-1.2,0.3-2.3,1-3.3l0,0l0,0c0.3-0.5,0.8-0.8,1.3-1.1l0,0l0,0
		c0.5-0.3,1.1-0.4,1.7-0.4l0,0l0,0c1.4,0,2.1,0.7,2.1,2l0,0l0,0c0,0.8-0.3,1.5-0.9,1.9l0,0l0,0c-0.6,0.5-1.4,0.7-2.2,0.7l0,0l0,0
		c-0.6,0-1.1,0-1.5-0.1l0,0l0,0c0,0.1,0,0.2,0,0.4l0,0l0,0c0,1.7,0.5,2.5,1.5,2.5l0,0l0,0c0.9,0,1.7-0.5,2.3-1.4l0,0l0,0
		C82.1,13.4,82.3,13.5,82.3,13.8L82.3,13.8z"/>
</g>
<g id="dfe8044c-91b6-4966-9038-a63642c35301" transform="matrix(0.6414999074478166,0,0,0.6414999074478166,37.325639709553826,117.89613952995941)">
	<path class="st1" d="M44,46.1L44,46.1c-0.8-1.4-2-2.4-3.5-2.8h-0.1c-0.8-0.2-1.7-0.4-2.5-0.5c-2.3-0.3-4.5-1.1-6.4-2.4
		c-0.4-0.2-0.8-0.1-1,0.3c-0.2,0.3-0.1,0.8,0.2,1c0.6,0.4,1.3,0.8,2,1.1c0,0.1-0.1,0.2-0.1,0.3c-0.9,3.2,0.9,6.6,4.2,7.5
		c0.6,0.2,1.2,0.3,1.8,0.2c1.8,0,3.6-0.8,4.7-2.3c0.1,1,0,2-0.2,3c-0.2,0.4,0,0.8,0.4,1c0,0,0,0,0.1,0c0.1,0,0.2,0,0.2,0
		c0.3,0,0.6-0.2,0.7-0.5c0.3-1.3,0.4-2.7,0.2-4.1C44.5,47.3,44.3,46.7,44,46.1z M39.5,44.6c0,0.2,0,0.3,0,0.5
		c-0.2,0.7-0.9,1.1-1.6,0.9s-1.1-0.9-0.9-1.6c0-0.1,0.1-0.1,0.1-0.2l0.6,0.1C38.3,44.3,38.9,44.4,39.5,44.6L39.5,44.6z M40.5,48.8
		c-1.1,0.6-2.3,0.7-3.5,0.3c-2.4-0.7-3.8-3.2-3.1-5.7v-0.1c0.6,0.2,1.1,0.4,1.7,0.5V44c-0.5,1.5,0.3,3,1.8,3.5
		c1.5,0.5,3-0.3,3.5-1.8c0.1-0.2,0.1-0.3,0.1-0.5c0.6,0.3,1.1,0.8,1.5,1.3C42.1,47.5,41.4,48.3,40.5,48.8L40.5,48.8z M67.6,43.1
		c0-0.1-0.1-0.2-0.1-0.3c0.7-0.3,1.4-0.7,2-1.1c0.3-0.3,0.4-0.7,0.1-1.1c-0.2-0.3-0.7-0.4-1-0.2c-1.9,1.3-4.1,2.1-6.4,2.4
		c-0.9,0.1-1.7,0.2-2.5,0.5h-0.1C58,43.7,56.8,44.6,56,46v0c-0.3,0.6-0.5,1.3-0.5,2c-0.2,1.4-0.1,2.8,0.2,4.1
		c0.1,0.3,0.4,0.5,0.7,0.5c0.4,0,0.8-0.3,0.8-0.7c0-0.1,0-0.2,0-0.3c-0.2-1-0.3-2-0.2-3c1.1,1.4,2.9,2.3,4.7,2.3
		c0.6,0,1.2-0.1,1.8-0.2C66.6,49.7,68.5,46.3,67.6,43.1C67.6,43.1,67.6,43.1,67.6,43.1z M62.3,44.3l0.6-0.1c0,0.1,0.1,0.1,0.1,0.2
		c0.2,0.7-0.2,1.4-0.9,1.6c-0.7,0.2-1.4-0.2-1.6-0.8c-0.1-0.2-0.1-0.4,0-0.6C61,44.4,61.7,44.3,62.3,44.3L62.3,44.3z M63,49.1
		c-1.2,0.3-2.4,0.2-3.5-0.3c-0.9-0.5-1.7-1.4-2-2.4c0.4-0.6,0.9-1,1.5-1.3c0,0.1,0,0.2,0.1,0.4c0.4,1.2,1.4,2,2.7,2
		c1.5,0,2.8-1.3,2.7-2.9c0-0.2,0-0.4-0.1-0.7v-0.1c0.6-0.2,1.1-0.3,1.7-0.5v0.1C66.8,45.9,65.4,48.4,63,49.1z"/>
	<path class="st1" d="M46.3,44.9c-0.2-2.2-2-3.7-5.2-3.9c-1.7-0.2-3.3-0.8-4.7-1.7c-0.3-0.2-0.8-0.1-1,0.2s-0.1,0.8,0.2,1
		c1.6,1,3.5,1.7,5.4,1.9c1.3,0.1,3.6,0.6,3.8,2.5c0,0.4,0.4,0.7,0.8,0.7h0C46.1,45.7,46.4,45.3,46.3,44.9z M59.3,42.5
		c1.9-0.2,3.8-0.9,5.4-1.9c0.3-0.2,0.4-0.7,0.2-1s-0.7-0.4-1-0.2c-1.4,0.9-3,1.5-4.7,1.7c-3.1,0.2-5,1.7-5.1,3.9
		c0,0.4,0.3,0.8,0.7,0.8c0,0,0,0,0,0h0c0.4,0,0.7-0.3,0.7-0.7C55.7,43,58,42.6,59.3,42.5z M34.6,37.2c0.3,0.3,0.7,0.4,1.1,0.1
		s0.4-0.7,0.1-1.1c0,0,0,0,0,0l-3.2-3.9c-0.3-0.3-0.7-0.4-1.1-0.1s-0.4,0.7-0.1,1.1c0,0,0,0,0,0L34.6,37.2z M38,35.1
		c0.1,0.3,0.4,0.5,0.7,0.5c0.4,0,0.7-0.3,0.7-0.8c0-0.1,0-0.2,0-0.2L38,30.9c-0.1-0.4-0.6-0.6-1-0.4s-0.6,0.6-0.4,1L38,35.1z
		 M42,35.2c0.4,0,0.7-0.3,0.8-0.7l0.2-3.2c0-0.4-0.3-0.8-0.7-0.8c0,0,0,0,0,0c-0.4,0-0.8,0.3-0.8,0.7c0,0,0,0,0,0l-0.2,3.2
		C41.2,34.8,41.5,35.2,42,35.2C42,35.2,42,35.2,42,35.2z"/>
	<path class="st1" d="M95.3,61c-3.9-1.2-13.1-1.1-20.5-0.8c5-6.3,5-12.4,4.1-15.3c-0.7-2.2-1.7-7.6-0.4-9.7c0.2-0.4,0.7-0.7,1.2-0.8
		c1.8-0.2,2.1-2.1,2.3-3.5c0.1-0.5,0.2-1,0.3-1.5c0.3-0.5,0.7-1,1.2-1.4c1.4-1.1,2.5-2.6,3.2-4.2c1.6-3.9-0.5-5.8-0.6-5.9
		c-0.1-0.1-0.2-0.1-0.3-0.1h-0.1c-1.6-0.4-3.4-0.2-4.8,0.7c-0.7,0.3-1.5,0.7-2.8,1.2c-2.7,1.3-5.9,0.8-8-1.3
		c-4.5-4.3-7.7-5.6-20.1-5.6s-15.5,1.3-20,5.6c-2.1,2.1-5.3,2.7-8,1.3c-0.9-0.4-1.9-0.8-2.8-1.2c-1.4-0.9-3.2-1.2-4.8-0.7h-0.1
		c-0.1,0-0.2,0.1-0.3,0.1c-0.1,0.1-2.2,2-0.6,5.9c0.7,1.7,1.8,3.1,3.2,4.2c0.5,0.4,0.9,0.8,1.2,1.4c0.1,0.5,0.2,1,0.2,1.6
		c0.2,1.5,0.6,3.3,2.3,3.5c0.5,0.1,0.9,0.3,1.2,0.8c1.3,2.1,0.3,7.5-0.4,9.7c-0.9,2.9-0.9,9,4.1,15.3C17.8,59.9,8.6,59.8,4.7,61
		c-0.4,0.1-0.6,0.6-0.5,0.9c0.1,0.4,0.6,0.6,0.9,0.5c4.1-1.3,15-1,21.2-0.7h0.2l0.6,0.7c-7.7,0.1-12.9,0.6-15.5,1.6
		c-0.4,0.1-0.6,0.6-0.5,0.9c0.1,0.4,0.6,0.6,0.9,0.5c0,0,0,0,0,0c2.6-0.9,8.3-1.4,16.6-1.5c0.4,0.3,0.7,0.6,1.1,0.9
		c-6.5,0.4-17,1.2-21,3c-0.4,0.2-0.5,0.6-0.3,1c0.2,0.3,0.6,0.5,0.9,0.4c4.2-1.8,16.2-2.6,22.2-2.9l1,0.7l0.1,0.1
		c-6.3,0.6-10.6,1.4-12.8,2.4c-0.4,0.2-0.5,0.6-0.3,1c0.2,0.3,0.6,0.5,0.9,0.4c2.1-0.9,6.4-1.7,12.7-2.3c0,1.8,0.2,3.7,0.7,5.5
		c1.6,4.3,3.9,5.4,6.5,5.6c0.4,0.7,0.9,1.3,1.5,1.8c-1.4,1.3-2.5,2.8-3.4,4.5c-0.1,0.4,0,0.8,0.4,1s0.8,0,1-0.4
		c0.3-0.7,1.1-2,3.3-4.2c0.6,0.3,1.3,0.6,2,0.8c-0.5,1.1-0.8,2.2-0.9,3.4c0,0.4,0.3,0.8,0.7,0.8c0,0,0,0,0,0c0.4,0,0.7-0.3,0.8-0.7
		c0.1-1.1,0.4-2.2,0.9-3.2c2.2,0.4,4.4,0.4,6.5,0c0.5,1,0.8,2.1,0.9,3.2c0,0.4,0.4,0.7,0.8,0.7c0.4,0,0.7-0.4,0.7-0.8c0,0,0,0,0,0
		c-0.1-1.2-0.4-2.3-0.9-3.4c0.7-0.2,1.4-0.5,2-0.8c2.2,2.2,3,3.5,3.3,4.2c0.1,0.4,0.6,0.6,1,0.4s0.6-0.6,0.4-1
		c-0.8-1.7-2-3.2-3.4-4.5c0.6-0.5,1.1-1.1,1.5-1.8c2.6-0.2,4.8-1.3,6.4-5.6c0.5-1.8,0.7-3.6,0.7-5.4c6.3,0.6,10.7,1.4,12.7,2.3
		c0.4,0.2,0.8,0.1,1-0.3c0.2-0.4,0.1-0.8-0.3-1c0,0-0.1,0-0.1,0c-2.2-1-6.6-1.8-13-2.4l0.8-0.6l0.3-0.2c6,0.3,18.2,1.1,22.4,3
		c0.4,0.1,0.8-0.1,1-0.5c0.1-0.3,0-0.7-0.4-0.9c-4.1-1.8-14.6-2.6-21.1-3c0.4-0.3,0.8-0.6,1.1-0.9c8.3,0.1,14,0.6,16.6,1.5
		c0.4,0.1,0.8-0.1,0.9-0.5c0.1-0.4-0.1-0.8-0.4-0.9c-2.6-0.9-7.8-1.5-15.5-1.6l0.7-0.7h0.2c6.2-0.3,17.1-0.6,21.2,0.7
		c0.4,0.1,0.9-0.1,1-0.5C96,61.6,95.7,61.1,95.3,61z M53.3,79.9c-0.2-0.4-0.7-0.5-1-0.3c-0.4,0.2-0.5,0.7-0.3,1
		c0.2,0.3,0.4,0.7,0.6,1.2c-1.7,0.3-3.5,0.3-5.2,0c0.3-0.7,0.6-1.2,0.6-1.2c0.2-0.4,0.1-0.8-0.3-1c-0.4-0.2-0.8-0.1-1,0.3
		c0,0.1-0.4,0.7-0.9,1.7c-1.4-0.3-2.6-1-3.6-2h2.4c2.2,0,4.2-1.2,5.2-3.1c1.1,1.9,3.1,3.1,5.3,3.1h2.4c-1,1-2.2,1.7-3.6,2
		C53.7,80.7,53.3,80,53.3,79.9L53.3,79.9z M70.4,62.6L70.4,62.6c-0.9,0.8-1.8,1.4-2.8,2.1h-0.8c0.1-1.7,0.4-3.2,1.1-3.7
		c0.3-0.3,0.4-0.7,0.1-1.1c-0.3-0.3-0.7-0.4-1.1-0.1c-1,0.8-1.4,2.6-1.6,4.8h-0.6c-0.4,0-0.7,0.3-0.8,0.7c0,0,0,0,0,0
		c0,0.4,0.3,0.8,0.7,0.8c0,0,0,0,0,0h0.6v0.7h-0.2c-0.4,0-0.8,0.3-0.8,0.7c0,0.4,0.3,0.8,0.7,0.8h0.2c0,1.7-0.2,3.4-0.6,5.1
		c-1.4,3.8-3.1,4.5-5.5,4.7h-3.8c-2.5,0-4.5-2-4.5-4.5c0.3-0.3,0.7-0.6,1.2-0.8c1-0.6,2.5-1.5,1.9-2.8c-0.2-0.4-0.1-0.7,1.7-1.8
		l0.6-0.4c0.7-0.4,1.2-1.2,1.3-2c0-0.7-0.4-1.2-1-1.6c-0.3-0.2-0.8-0.1-1,0.2c-0.2,0.3-0.1,0.8,0.2,1c0.1,0.1,0.3,0.2,0.3,0.4
		s-0.2,0.4-0.7,0.8l-0.6,0.4c-1.6,1.1-2.9,2-2.2,3.6c-0.1,0.2-0.9,0.7-1.3,1c-0.4,0.2-0.8,0.5-1.1,0.8c-0.4-0.3-0.7-0.5-1.1-0.8
		c-0.5-0.3-0.9-0.6-1.3-0.9c0.7-1.7-0.6-2.5-2.2-3.7l-0.6-0.4c-0.5-0.3-0.7-0.6-0.7-0.8s0.2-0.3,0.3-0.4c0.3-0.2,0.4-0.7,0.2-1
		c-0.2-0.3-0.6-0.4-1-0.2c-0.6,0.4-0.9,0.9-1,1.6c0.1,0.8,0.6,1.6,1.3,2l0.6,0.4c1.7,1.2,1.8,1.4,1.7,1.8c-0.5,1.3,0.9,2.2,1.9,2.8
		c0.4,0.2,0.8,0.5,1.2,0.8c0,2.5-2,4.5-4.5,4.5h-1.6c-3.7,0.1-6,0.1-7.8-4.7c-0.4-1.7-0.6-3.3-0.6-5.1H35c0.4,0,0.7-0.4,0.7-0.8
		c0-0.4-0.4-0.7-0.8-0.7h-0.1v-0.7h0.6c0.4,0,0.8-0.3,0.8-0.8s-0.3-0.8-0.8-0.8h-0.6c-0.2-2.2-0.6-4-1.6-4.8
		c-0.4-0.3-0.9-0.2-1.1,0.1c-0.3,0.4-0.2,0.9,0.1,1.1c0.6,0.5,0.9,2,1.1,3.7h-1c-0.9-0.6-1.7-1.3-2.5-2c0-0.1-0.1-0.1-0.1-0.1
		c-0.3-0.2-0.5-0.5-0.8-0.7l2.3,0.2h0.1c0.4,0,0.8-0.3,0.8-0.7c0-0.4-0.3-0.8-0.7-0.8c0,0-1.6-0.1-4-0.2c-5.4-6.2-5.6-12.2-4.7-14.9
		c0-0.1,2.3-7.6,0.2-10.9c-0.5-0.8-1.3-1.3-2.2-1.4c-0.6-0.1-0.8-1-1-2.3c-0.1-0.6-0.2-1.2-0.4-1.8c-0.4-0.8-0.9-1.4-1.6-2
		c-1.2-1-2.2-2.2-2.8-3.7c-1-2.4-0.2-3.7,0.1-4.1c0.7-0.1,1.5,0.1,2.1,0.5c0.1,0.1,7.5,5.5,10.8,5.5H28c-3,2.1-4.8,4.9-4.8,7.6
		c0,0.4,0.3,0.8,0.8,0.8s0.8-0.3,0.8-0.8c0-2.8,2.6-5.9,6.6-7.9c1.6-0.2,3.1-0.7,4.5-1.5c0.4-0.2,0.5-0.6,0.3-1s-0.6-0.5-1-0.3
		c0,0,0,0,0,0c-2.3,1.2-4.9,1.7-7.6,1.6c-1.2,0-3.6-1.2-5.9-2.5c3.2,1.4,6.9,0.7,9.3-1.7c4-3.8,6.5-5.1,19-5.1s15,1.3,19,5.1
		c1.5,1.6,3.6,2.4,5.8,2.5c1.2,0,2.3-0.2,3.4-0.7c-2.2,1.3-4.6,2.5-5.8,2.5c-2.6,0.1-5.2-0.4-7.6-1.6c-0.4-0.2-0.8-0.1-1,0.3
		c-0.2,0.4-0.1,0.8,0.3,1c1.4,0.8,2.9,1.3,4.5,1.5c4,2,6.6,5,6.6,7.9c0,0.4,0.3,0.8,0.8,0.8s0.8-0.3,0.8-0.8c0-2.7-1.8-5.4-4.8-7.6
		h0.4c3.3,0,10.7-5.5,10.8-5.5c0.6-0.4,1.3-0.6,2.1-0.5c0.3,0.4,1.1,1.7,0.1,4.1c-0.6,1.4-1.6,2.7-2.8,3.7c-0.7,0.5-1.3,1.2-1.6,2
		c-0.2,0.6-0.4,1.2-0.4,1.8c-0.2,1.3-0.4,2.2-1,2.3c-0.9,0.1-1.8,0.6-2.2,1.5c-2.1,3.3,0.2,10.9,0.2,10.9c0.9,2.7,0.7,8.7-4.7,14.9
		c-2.4,0.1-4,0.2-4,0.2c-0.4,0-0.7,0.4-0.7,0.8s0.4,0.7,0.8,0.7h0.1l2.3-0.2C71,62.2,70.7,62.4,70.4,62.6z"/>
	<path class="st1" d="M64.8,37.5c0.2,0,0.4-0.1,0.6-0.3l3.2-3.9c0.3-0.3,0.2-0.8-0.1-1.1c-0.3-0.3-0.8-0.2-1.1,0.1c0,0,0,0,0,0
		l-3.2,3.9c-0.3,0.3-0.2,0.8,0.1,1.1C64.4,37.5,64.6,37.5,64.8,37.5L64.8,37.5z M61.1,35.5c0.1,0,0.2,0,0.3,0c0.3,0,0.6-0.2,0.7-0.5
		l1.4-3.7c0.1-0.4,0-0.8-0.4-1s-0.8,0-1,0.4l-1.4,3.7C60.5,34.9,60.6,35.3,61.1,35.5C61,35.5,61,35.5,61.1,35.5z M58,35.2
		c0.4,0,0.7-0.4,0.7-0.8c0,0,0,0,0,0l-0.2-3.2c0-0.4-0.4-0.7-0.8-0.7c-0.4,0-0.7,0.4-0.7,0.8l0.2,3.2C57.2,34.9,57.6,35.2,58,35.2
		C58,35.2,58,35.2,58,35.2z"/>
	<circle class="st1" cx="38.1" cy="69.8" r="1.1"/>
	<circle class="st1" cx="38.5" cy="73.4" r="1.1"/>
	<circle class="st1" cx="41.2" cy="75.8" r="1.1"/>
	<circle class="st1" cx="42.1" cy="72.1" r="1.1"/>
	<circle class="st1" cx="45.1" cy="73.9" r="1.1"/>
	<circle class="st1" cx="61.9" cy="69.8" r="1.1"/>
	<circle class="st1" cx="61.5" cy="73.4" r="1.1"/>
	<circle class="st1" cx="58.8" cy="75.8" r="1.1"/>
	<circle class="st1" cx="57.9" cy="72.1" r="1.1"/>
	<circle class="st1" cx="54.9" cy="73.9" r="1.1"/>
	<path class="st1" d="M53.6,52.5c-0.4,0-0.8,0.3-0.8,0.7c0,0,0,0,0,0c-0.3,2.1-1.3,4-2.8,5.4c-1.5-1.4-2.5-3.3-2.7-5.4
		c0-0.4-0.4-0.7-0.8-0.7c-0.4,0-0.7,0.4-0.7,0.8c0.4,2.7,1.7,5.1,3.7,6.9c0.1,0.1,0.3,0.2,0.5,0.2c0.2,0,0.3-0.1,0.5-0.2
		c2-1.8,3.4-4.2,3.7-6.9C54.2,52.9,53.9,52.6,53.6,52.5z M40.4,55.2c-0.4-0.2-0.8-0.1-1,0.3c-0.2,0.3-0.5,0.7-0.7,1.1
		c-1.3,1.9-3.4,4.9-0.5,8c0.3,0.3,0.8,0.2,1.1-0.1c0.2-0.3,0.2-0.6,0-0.9c-1.9-2-0.9-3.8,0.6-6.1c0.3-0.4,0.6-0.8,0.8-1.2
		C40.9,55.9,40.8,55.5,40.4,55.2C40.4,55.2,40.4,55.2,40.4,55.2z M60.7,55.5c-0.2-0.4-0.7-0.5-1-0.3c-0.4,0.2-0.5,0.7-0.3,1
		c0.2,0.4,0.5,0.8,0.8,1.2c1.6,2.3,2.5,4,0.6,6.1c-0.3,0.3-0.4,0.7-0.1,1.1c0.3,0.3,0.7,0.4,1.1,0.1c0.1,0,0.1-0.1,0.1-0.1
		c2.8-3.1,0.8-6-0.5-8C61.2,56.2,60.9,55.8,60.7,55.5z M41.9,65c0.1-0.4-0.1-0.8-0.5-0.9c-0.4-0.1-0.8,0.1-0.9,0.5
		c-0.6,1.9,0.2,3.9,1.9,4.8c0.4,0.2,0.8,0.1,1-0.3s0.1-0.8-0.3-1C42,67.5,41.5,66.2,41.9,65z M57.6,69.3c1.7-1,2.5-3,1.9-4.8
		c-0.1-0.4-0.6-0.6-0.9-0.5c-0.4,0.1-0.6,0.6-0.5,0.9l0,0c0.3,1.2-0.2,2.4-1.2,3c-0.4,0.2-0.5,0.7-0.3,1S57.3,69.5,57.6,69.3
		L57.6,69.3z M52.9,65.1c-1.4,1.6-3.8,1.8-5.4,0.4c-0.1-0.1-0.3-0.2-0.4-0.4c-0.3-0.3-0.8-0.4-1.1-0.1c-0.3,0.3-0.4,0.8-0.1,1.1
		c1.9,2.2,5.3,2.5,7.5,0.6c0.2-0.2,0.4-0.4,0.6-0.6c0.3-0.3,0.2-0.8-0.1-1.1C53.6,64.8,53.1,64.8,52.9,65.1L52.9,65.1L52.9,65.1z
		 M30.5,50.5c-0.3-0.2-0.8-0.1-1,0.2s-0.1,0.8,0.2,1c0,0,0.1,0,0.1,0.1c2.6,1.5,3.8,3.6,3.8,4.4c0,0.4,0.3,0.8,0.8,0.8
		s0.8-0.3,0.8-0.8C35.1,54.6,33.4,52.1,30.5,50.5z M70.6,50.8c-0.2-0.4-0.6-0.5-1-0.3c-2.9,1.6-4.6,4.1-4.6,5.7
		c0,0.4,0.3,0.8,0.8,0.8s0.8-0.3,0.8-0.8c0-0.8,1.1-2.9,3.8-4.4C70.6,51.7,70.8,51.2,70.6,50.8C70.6,50.8,70.6,50.8,70.6,50.8z"/>
</g>
<g id="_x35_afeb38c-54b7-45cf-8e8f-6e00f7dcb161" transform="matrix(0.4959242904269749,0,0,0.4959242904269749,111.69879049937542,160.64609744192566)">
	<path d="M7.7,13l-1.2-2.9H2.2L1,13H0.3L4,3.8h0.8L8.5,13H7.7z M2.4,9.5h3.9l-1.6-4l-0.3-1h0L4,5.4L2.4,9.5z M20.5,8.5h3.8V13h-0.6
		l0-1.6l0,0c-0.3,0.6-0.6,1-1.2,1.3l0,0l0,0c-0.5,0.3-1.2,0.4-2,0.4l0,0l0,0c-0.8,0-1.6-0.2-2.2-0.6l0,0l0,0
		c-0.6-0.4-1.1-0.9-1.5-1.7l0,0l0,0c-0.3-0.7-0.5-1.6-0.5-2.5l0,0l0,0c0-1,0.2-1.8,0.5-2.5l0,0l0,0c0.3-0.7,0.8-1.3,1.5-1.7l0,0l0,0
		c0.6-0.4,1.4-0.6,2.2-0.6l0,0l0,0c0.9,0,1.7,0.2,2.3,0.6l0,0l0,0c0.6,0.4,1,0.9,1.4,1.7l0,0l-0.6,0.3l0,0c-0.2-0.6-0.6-1.1-1.1-1.5
		l0,0l0,0c-0.5-0.3-1.1-0.5-1.9-0.5l0,0l0,0c-0.7,0-1.3,0.2-1.8,0.5l0,0l0,0c-0.5,0.3-0.9,0.8-1.2,1.4l0,0l0,0
		c-0.3,0.6-0.4,1.4-0.4,2.2l0,0l0,0c0,1.3,0.3,2.3,0.9,3l0,0l0,0c0.6,0.7,1.5,1.1,2.5,1.1l0,0l0,0c0.7,0,1.2-0.1,1.7-0.4l0,0l0,0
		c0.5-0.3,0.8-0.6,1-1.1l0,0l0,0c0.2-0.4,0.3-0.9,0.3-1.4l0,0V9.2h-3.1V8.5z M34.5,12.4h5.8V13h-6.5V3.8h6.3v0.6h-5.6V8h4.4v0.7
		h-4.4V12.4z M56.5,3.8V13h-0.9l-4.9-7.3L50,4.5h0l0,1.2V13h-0.7V3.8h0.9l4.9,7.2l0.7,1.2l0-1.2V3.8H56.5z M73.7,10.7L73.7,10.7
		c-0.3,0.8-0.7,1.4-1.4,1.8l0,0l0,0c-0.7,0.4-1.4,0.6-2.3,0.6l0,0l0,0c-0.8,0-1.6-0.2-2.2-0.6l0,0l0,0c-0.6-0.4-1.1-0.9-1.5-1.7l0,0
		l0,0c-0.3-0.7-0.5-1.6-0.5-2.5l0,0l0,0c0-1,0.2-1.8,0.5-2.5l0,0l0,0c0.3-0.7,0.8-1.3,1.5-1.7l0,0l0,0c0.6-0.4,1.4-0.6,2.2-0.6l0,0
		l0,0c1.8,0,3,0.8,3.6,2.3l0,0l-0.7,0.3l0,0c-0.2-0.7-0.6-1.1-1-1.5l0,0l0,0c-0.5-0.3-1.1-0.5-1.8-0.5l0,0l0,0
		c-0.7,0-1.3,0.2-1.8,0.5l0,0l0,0c-0.5,0.3-0.9,0.8-1.2,1.4l0,0l0,0c-0.3,0.6-0.4,1.4-0.4,2.2l0,0l0,0c0,0.8,0.1,1.6,0.4,2.2l0,0
		l0,0c0.3,0.6,0.7,1.1,1.2,1.4l0,0l0,0c0.5,0.3,1.1,0.5,1.8,0.5l0,0l0,0c0.7,0,1.4-0.2,1.9-0.6l0,0l0,0c0.5-0.4,0.9-0.9,1.1-1.6l0,0
		L73.7,10.7z M83.4,12.4h5.8V13h-6.5V3.8h6.3v0.6h-5.6V8h4.4v0.7h-4.4V12.4z M112.6,3.8L112.6,3.8c1.5,0,2.6,0.4,3.4,1.2l0,0l0,0
		c0.8,0.8,1.2,1.9,1.2,3.4l0,0l0,0c0,1.5-0.4,2.7-1.2,3.5l0,0l0,0c-0.8,0.8-1.9,1.2-3.4,1.2l0,0h-2.9V3.8H112.6z M112.7,12.4
		L112.7,12.4c1.2,0,2.2-0.4,2.8-1.1l0,0l0,0c0.7-0.7,1-1.7,1-3l0,0l0,0c0-1.3-0.3-2.2-1-2.9l0,0l0,0c-0.7-0.7-1.6-1-2.8-1l0,0h-2.3
		v8H112.7z M127.3,12.4h5.8V13h-6.5V3.8h6.3v0.6h-5.6V8h4.4v0.7h-4.4V12.4z M158.1,6.5l-1.9,6.5h-0.9l-2.9-9.2h0.8l2.6,8.7l2.4-8.7
		h0.8l2.4,8.7l2.6-8.7h0.7l-2.9,9.2H161l-1.9-6.5l-0.5-2h0L158.1,6.5z M174.3,12.4h5.8V13h-6.5V3.8h6.3v0.6h-5.6V8h4.4v0.7h-4.4
		V12.4z M189.2,13V3.8h3.3l0,0c1,0,1.8,0.2,2.3,0.6l0,0l0,0c0.5,0.4,0.7,1,0.7,1.8l0,0l0,0c0,0.5-0.1,1-0.4,1.4l0,0l0,0
		c-0.3,0.4-0.7,0.6-1.3,0.7l0,0v0l0,0c0.6,0.1,1.1,0.3,1.4,0.7l0,0l0,0c0.4,0.4,0.5,0.9,0.5,1.5l0,0l0,0c0,0.8-0.3,1.4-0.9,1.8l0,0
		l0,0c-0.6,0.4-1.4,0.7-2.4,0.7l0,0H189.2z M189.9,8h2.6l0,0c1.5,0,2.2-0.6,2.2-1.8l0,0l0,0c0-1.2-0.8-1.8-2.2-1.8l0,0h-2.6V8z
		 M189.9,12.4h2.7l0,0c0.8,0,1.4-0.2,1.8-0.5l0,0l0,0c0.4-0.3,0.6-0.8,0.6-1.4l0,0l0,0c0-0.6-0.2-1.1-0.6-1.4l0,0l0,0
		c-0.4-0.3-1-0.5-1.8-0.5l0,0h-2.7V12.4z M219.3,3.8L219.3,3.8c1.5,0,2.6,0.4,3.4,1.2l0,0l0,0c0.8,0.8,1.2,1.9,1.2,3.4l0,0l0,0
		c0,1.5-0.4,2.7-1.2,3.5l0,0l0,0c-0.8,0.8-1.9,1.2-3.4,1.2l0,0h-2.9V3.8H219.3z M219.4,12.4L219.4,12.4c1.2,0,2.2-0.4,2.8-1.1l0,0
		l0,0c0.7-0.7,1-1.7,1-3l0,0l0,0c0-1.3-0.3-2.2-1-2.9l0,0l0,0c-0.7-0.7-1.6-1-2.8-1l0,0h-2.3v8H219.4z M234,12.4h5.8V13h-6.5V3.8
		h6.3v0.6H234V8h4.4v0.7H234V12.4z M251.7,3.6L251.7,3.6c1.7,0,2.9,0.7,3.5,2l0,0l-0.6,0.5l0,0c-0.2-0.7-0.6-1.1-1.1-1.4l0,0l0,0
		c-0.5-0.3-1.1-0.4-1.8-0.4l0,0l0,0c-0.5,0-1,0.1-1.4,0.3l0,0l0,0c-0.4,0.2-0.7,0.4-0.9,0.7l0,0l0,0c-0.2,0.3-0.3,0.6-0.3,1l0,0l0,0
		c0,0.4,0.1,0.6,0.3,0.9l0,0l0,0c0.2,0.2,0.5,0.4,0.9,0.6l0,0l0,0c0.4,0.2,1,0.3,1.8,0.4l0,0l0,0c1.2,0.2,2.1,0.5,2.6,0.9l0,0l0,0
		c0.5,0.4,0.8,0.9,0.8,1.6l0,0l0,0c0,0.5-0.1,0.9-0.4,1.3l0,0l0,0c-0.3,0.4-0.7,0.7-1.2,0.9l0,0l0,0c-0.5,0.2-1.1,0.3-1.8,0.3l0,0
		l0,0c-1,0-1.8-0.2-2.4-0.6l0,0l0,0c-0.7-0.4-1.1-0.9-1.4-1.6l0,0l0.6-0.5l0,0c0.2,0.7,0.6,1.2,1.1,1.5l0,0l0,0
		c0.6,0.4,1.3,0.5,2.1,0.5l0,0l0,0c0.8,0,1.5-0.2,2-0.5l0,0l0,0c0.5-0.3,0.8-0.8,0.8-1.4l0,0l0,0c0-0.5-0.2-0.9-0.6-1.2l0,0l0,0
		c-0.4-0.3-1.1-0.5-2.2-0.7l0,0l0,0c-0.9-0.2-1.6-0.3-2.1-0.6l0,0l0,0c-0.5-0.2-0.9-0.5-1.1-0.8l0,0l0,0c-0.2-0.3-0.3-0.7-0.3-1.2
		l0,0l0,0c0-0.5,0.1-0.9,0.4-1.3l0,0l0,0c0.3-0.4,0.7-0.7,1.2-1l0,0l0,0C250.4,3.8,251,3.6,251.7,3.6L251.7,3.6z M265.2,3.8V13h-0.7
		V3.8H265.2z M278.7,8.5h3.8V13h-0.6l0-1.6l0,0c-0.3,0.6-0.6,1-1.2,1.3l0,0l0,0c-0.5,0.3-1.2,0.4-2,0.4l0,0l0,0
		c-0.8,0-1.6-0.2-2.2-0.6l0,0l0,0c-0.6-0.4-1.1-0.9-1.4-1.7l0,0l0,0c-0.3-0.7-0.5-1.6-0.5-2.5l0,0l0,0c0-1,0.2-1.8,0.5-2.5l0,0l0,0
		c0.4-0.7,0.8-1.3,1.5-1.7l0,0l0,0c0.6-0.4,1.4-0.6,2.2-0.6l0,0l0,0c0.9,0,1.7,0.2,2.3,0.6l0,0l0,0c0.6,0.4,1,0.9,1.3,1.7l0,0
		l-0.6,0.3l0,0c-0.2-0.6-0.6-1.1-1.1-1.5l0,0l0,0c-0.5-0.3-1.2-0.5-1.9-0.5l0,0l0,0c-0.7,0-1.3,0.2-1.8,0.5l0,0l0,0
		c-0.5,0.3-0.9,0.8-1.2,1.4l0,0l0,0c-0.3,0.6-0.4,1.4-0.4,2.2l0,0l0,0c0,1.3,0.3,2.3,0.9,3l0,0l0,0c0.6,0.7,1.5,1.1,2.5,1.1l0,0l0,0
		c0.7,0,1.2-0.1,1.7-0.4l0,0l0,0c0.5-0.3,0.8-0.6,1-1.1l0,0l0,0c0.2-0.4,0.3-0.9,0.3-1.4l0,0V9.2h-3.1V8.5z M299,3.8V13h-0.9
		l-4.9-7.3l-0.7-1.2h0l0,1.2V13h-0.7V3.8h0.9l4.9,7.2l0.7,1.2l0-1.2V3.8H299z"/>
</g>
</svg>
